<svg xmlns="http://www.w3.org/2000/svg" xmlns:xlink="http://www.w3.org/1999/xlink" width="600" height="400" viewBox="0 0 2400 1600">
<defs>
  <clipPath id="clip630">
    <rect x="0" y="0" width="2400" height="1600"></rect>
  </clipPath>
</defs>
<path clip-path="url(#clip630)" d="M0 1600 L2400 1600 L2400 8.88178e-14 L0 8.88178e-14  Z" fill="#ffffff" fill-rule="evenodd" fill-opacity="1"></path>
<defs>
  <clipPath id="clip631">
    <rect x="480" y="0" width="1681" height="1600"></rect>
  </clipPath>
</defs>
<path clip-path="url(#clip630)" d="M263.457 1423.18 L2352.76 1423.18 L2352.76 123.472 L263.457 123.472  Z" fill="#ffffff" fill-rule="evenodd" fill-opacity="1"></path>
<defs>
  <clipPath id="clip632">
    <rect x="263" y="123" width="2090" height="1301"></rect>
  </clipPath>
</defs>
<polyline clip-path="url(#clip632)" style="stroke:#000000; stroke-linecap:round; stroke-linejoin:round; stroke-width:2; stroke-opacity:0.1; fill:none" points="263.457,1423.18 263.457,123.472 "></polyline>
<polyline clip-path="url(#clip632)" style="stroke:#000000; stroke-linecap:round; stroke-linejoin:round; stroke-width:2; stroke-opacity:0.1; fill:none" points="785.782,1423.18 785.782,123.472 "></polyline>
<polyline clip-path="url(#clip632)" style="stroke:#000000; stroke-linecap:round; stroke-linejoin:round; stroke-width:2; stroke-opacity:0.1; fill:none" points="1308.11,1423.18 1308.11,123.472 "></polyline>
<polyline clip-path="url(#clip632)" style="stroke:#000000; stroke-linecap:round; stroke-linejoin:round; stroke-width:2; stroke-opacity:0.1; fill:none" points="1830.43,1423.18 1830.43,123.472 "></polyline>
<polyline clip-path="url(#clip632)" style="stroke:#000000; stroke-linecap:round; stroke-linejoin:round; stroke-width:2; stroke-opacity:0.1; fill:none" points="2352.76,1423.18 2352.76,123.472 "></polyline>
<polyline clip-path="url(#clip632)" style="stroke:#000000; stroke-linecap:round; stroke-linejoin:round; stroke-width:2; stroke-opacity:0.1; fill:none" points="263.457,1423.18 2352.76,1423.18 "></polyline>
<polyline clip-path="url(#clip632)" style="stroke:#000000; stroke-linecap:round; stroke-linejoin:round; stroke-width:2; stroke-opacity:0.1; fill:none" points="263.457,701.12 2352.76,701.12 "></polyline>
<polyline clip-path="url(#clip630)" style="stroke:#000000; stroke-linecap:round; stroke-linejoin:round; stroke-width:4; stroke-opacity:1; fill:none" points="263.457,1423.18 2352.76,1423.18 "></polyline>
<polyline clip-path="url(#clip630)" style="stroke:#000000; stroke-linecap:round; stroke-linejoin:round; stroke-width:4; stroke-opacity:1; fill:none" points="263.457,1423.18 263.457,1404.28 "></polyline>
<polyline clip-path="url(#clip630)" style="stroke:#000000; stroke-linecap:round; stroke-linejoin:round; stroke-width:4; stroke-opacity:1; fill:none" points="785.782,1423.18 785.782,1404.28 "></polyline>
<polyline clip-path="url(#clip630)" style="stroke:#000000; stroke-linecap:round; stroke-linejoin:round; stroke-width:4; stroke-opacity:1; fill:none" points="1308.11,1423.18 1308.11,1404.28 "></polyline>
<polyline clip-path="url(#clip630)" style="stroke:#000000; stroke-linecap:round; stroke-linejoin:round; stroke-width:4; stroke-opacity:1; fill:none" points="1830.43,1423.18 1830.43,1404.28 "></polyline>
<polyline clip-path="url(#clip630)" style="stroke:#000000; stroke-linecap:round; stroke-linejoin:round; stroke-width:4; stroke-opacity:1; fill:none" points="2352.76,1423.18 2352.76,1404.28 "></polyline>
<path clip-path="url(#clip630)" d="M247.289 1472.22 Q247.585 1472.51 247.585 1472.93 Q247.585 1473.35 247.289 1473.65 Q246.992 1473.94 246.572 1473.94 L214.903 1473.94 Q214.483 1473.94 214.186 1473.65 Q213.89 1473.35 213.89 1472.93 Q213.89 1472.51 214.186 1472.22 Q214.483 1471.92 214.903 1471.92 L246.572 1471.92 Q246.992 1471.92 247.289 1472.22 Z" fill="#000000" fill-rule="nonzero" fill-opacity="1"></path><path clip-path="url(#clip630)" d="M252.921 1477.43 Q252.921 1475.92 253.736 1475.35 Q254.552 1474.76 255.416 1474.76 Q256.577 1474.76 257.244 1475.5 Q257.936 1476.22 257.936 1477.23 Q257.936 1478.24 257.244 1478.98 Q256.577 1479.7 255.416 1479.7 Q254.848 1479.7 254.552 1479.6 Q255.219 1481.92 257.244 1483.6 Q259.295 1485.28 261.987 1485.28 Q265.372 1485.28 267.397 1482 Q268.608 1479.87 268.608 1475.06 Q268.608 1470.81 267.694 1468.68 Q266.286 1465.45 263.395 1465.45 Q259.295 1465.45 256.874 1468.98 Q256.577 1469.42 256.231 1469.45 Q255.737 1469.45 255.614 1469.18 Q255.515 1468.88 255.515 1468.11 L255.515 1453.14 Q255.515 1451.93 256.009 1451.93 Q256.207 1451.93 256.627 1452.08 Q259.813 1453.49 263.346 1453.51 Q266.977 1453.51 270.238 1452.03 Q270.485 1451.88 270.633 1451.88 Q271.128 1451.88 271.152 1452.45 Q271.152 1452.65 270.732 1453.24 Q270.337 1453.81 269.472 1454.58 Q268.608 1455.32 267.496 1456.03 Q266.384 1456.75 264.754 1457.25 Q263.148 1457.71 261.37 1457.71 Q259.245 1457.71 257.071 1457.05 L257.071 1466.9 Q259.69 1464.33 263.494 1464.33 Q267.546 1464.33 270.337 1467.6 Q273.128 1470.86 273.128 1475.4 Q273.128 1480.17 269.818 1483.43 Q266.533 1486.69 262.086 1486.69 Q258.035 1486.69 255.466 1483.8 Q252.921 1480.91 252.921 1477.43 Z" fill="#000000" fill-rule="nonzero" fill-opacity="1"></path><path clip-path="url(#clip630)" d="M280.762 1484.76 Q279.996 1483.95 279.996 1482.89 Q279.996 1481.82 280.762 1481.06 Q281.528 1480.27 282.689 1480.27 Q283.8 1480.27 284.541 1481.01 Q285.307 1481.73 285.307 1482.91 Q285.307 1484.07 284.492 1484.84 Q283.702 1485.58 282.689 1485.58 Q281.528 1485.58 280.762 1484.76 Z" fill="#000000" fill-rule="nonzero" fill-opacity="1"></path><path clip-path="url(#clip630)" d="M291.73 1469.4 Q291.73 1461.96 293.608 1457.91 Q296.226 1451.88 302.402 1451.88 Q303.711 1451.88 305.07 1452.26 Q306.453 1452.6 308.183 1453.96 Q309.936 1455.32 310.999 1457.54 Q313.024 1461.84 313.024 1469.4 Q313.024 1476.79 311.147 1480.81 Q308.405 1486.69 302.353 1486.69 Q300.08 1486.69 297.758 1485.53 Q295.46 1484.37 294.003 1481.58 Q291.73 1477.4 291.73 1469.4 M295.93 1468.78 Q295.93 1476.41 296.473 1479.45 Q297.091 1482.74 298.771 1484.17 Q300.475 1485.58 302.353 1485.58 Q304.378 1485.58 306.058 1484.07 Q307.763 1482.54 308.281 1479.26 Q308.85 1476.02 308.825 1468.78 Q308.825 1461.74 308.331 1458.92 Q307.664 1455.64 305.885 1454.33 Q304.131 1453 302.353 1453 Q301.686 1453 300.969 1453.19 Q300.277 1453.39 299.265 1453.96 Q298.252 1454.53 297.461 1455.94 Q296.695 1457.34 296.325 1459.47 Q295.93 1462.21 295.93 1468.78 Z" fill="#000000" fill-rule="nonzero" fill-opacity="1"></path><path clip-path="url(#clip630)" d="M769.885 1472.22 Q770.182 1472.51 770.182 1472.93 Q770.182 1473.35 769.885 1473.65 Q769.589 1473.94 769.169 1473.94 L737.499 1473.94 Q737.079 1473.94 736.783 1473.65 Q736.486 1473.35 736.486 1472.93 Q736.486 1472.51 736.783 1472.22 Q737.079 1471.92 737.499 1471.92 L769.169 1471.92 Q769.589 1471.92 769.885 1472.22 Z" fill="#000000" fill-rule="nonzero" fill-opacity="1"></path><path clip-path="url(#clip630)" d="M775.518 1485.58 Q775.518 1484.67 775.592 1484.39 Q775.69 1484.12 776.086 1483.7 L785.794 1472.88 Q791.105 1466.9 791.105 1461.69 Q791.105 1458.31 789.327 1455.89 Q787.573 1453.47 784.337 1453.47 Q782.113 1453.47 780.236 1454.82 Q778.358 1456.18 777.494 1458.6 Q777.642 1458.55 778.161 1458.55 Q779.421 1458.55 780.112 1459.34 Q780.829 1460.14 780.829 1461.2 Q780.829 1462.56 779.939 1463.22 Q779.075 1463.87 778.21 1463.87 Q777.864 1463.87 777.395 1463.79 Q776.95 1463.72 776.234 1463.03 Q775.518 1462.31 775.518 1461.05 Q775.518 1457.52 778.186 1454.7 Q780.878 1451.88 784.979 1451.88 Q789.623 1451.88 792.662 1454.65 Q795.725 1457.39 795.725 1461.69 Q795.725 1463.2 795.256 1464.58 Q794.811 1465.94 794.193 1467 Q793.6 1468.07 791.97 1469.77 Q790.34 1471.47 789.03 1472.68 Q787.721 1473.9 784.781 1476.46 L779.421 1481.68 L788.536 1481.68 Q792.983 1481.68 793.329 1481.28 Q793.823 1480.57 794.44 1476.79 L795.725 1476.79 L794.292 1485.58 L775.518 1485.58 Z" fill="#000000" fill-rule="nonzero" fill-opacity="1"></path><path clip-path="url(#clip630)" d="M803.358 1484.76 Q802.592 1483.95 802.592 1482.89 Q802.592 1481.82 803.358 1481.06 Q804.124 1480.27 805.285 1480.27 Q806.397 1480.27 807.138 1481.01 Q807.904 1481.73 807.904 1482.91 Q807.904 1484.07 807.088 1484.84 Q806.298 1485.58 805.285 1485.58 Q804.124 1485.58 803.358 1484.76 Z" fill="#000000" fill-rule="nonzero" fill-opacity="1"></path><path clip-path="url(#clip630)" d="M814.87 1477.43 Q814.87 1475.92 815.685 1475.35 Q816.5 1474.76 817.365 1474.76 Q818.526 1474.76 819.193 1475.5 Q819.885 1476.22 819.885 1477.23 Q819.885 1478.24 819.193 1478.98 Q818.526 1479.7 817.365 1479.7 Q816.797 1479.7 816.5 1479.6 Q817.167 1481.92 819.193 1483.6 Q821.243 1485.28 823.936 1485.28 Q827.321 1485.28 829.346 1482 Q830.557 1479.87 830.557 1475.06 Q830.557 1470.81 829.643 1468.68 Q828.235 1465.45 825.344 1465.45 Q821.243 1465.45 818.823 1468.98 Q818.526 1469.42 818.18 1469.45 Q817.686 1469.45 817.563 1469.18 Q817.464 1468.88 817.464 1468.11 L817.464 1453.14 Q817.464 1451.93 817.958 1451.93 Q818.156 1451.93 818.576 1452.08 Q821.762 1453.49 825.295 1453.51 Q828.926 1453.51 832.187 1452.03 Q832.434 1451.88 832.582 1451.88 Q833.076 1451.88 833.101 1452.45 Q833.101 1452.65 832.681 1453.24 Q832.286 1453.81 831.421 1454.58 Q830.557 1455.32 829.445 1456.03 Q828.333 1456.75 826.703 1457.25 Q825.097 1457.71 823.319 1457.71 Q821.194 1457.71 819.02 1457.05 L819.02 1466.9 Q821.639 1464.33 825.443 1464.33 Q829.494 1464.33 832.286 1467.6 Q835.077 1470.86 835.077 1475.4 Q835.077 1480.17 831.767 1483.43 Q828.482 1486.69 824.035 1486.69 Q819.984 1486.69 817.414 1483.8 Q814.87 1480.91 814.87 1477.43 Z" fill="#000000" fill-rule="nonzero" fill-opacity="1"></path><path clip-path="url(#clip630)" d="M1277.78 1469.4 Q1277.78 1461.96 1279.66 1457.91 Q1282.28 1451.88 1288.45 1451.88 Q1289.76 1451.88 1291.12 1452.26 Q1292.51 1452.6 1294.24 1453.96 Q1295.99 1455.32 1297.05 1457.54 Q1299.08 1461.84 1299.08 1469.4 Q1299.08 1476.79 1297.2 1480.81 Q1294.46 1486.69 1288.41 1486.69 Q1286.13 1486.69 1283.81 1485.53 Q1281.51 1484.37 1280.06 1481.58 Q1277.78 1477.4 1277.78 1469.4 M1281.98 1468.78 Q1281.98 1476.41 1282.53 1479.45 Q1283.14 1482.74 1284.82 1484.17 Q1286.53 1485.58 1288.41 1485.58 Q1290.43 1485.58 1292.11 1484.07 Q1293.82 1482.54 1294.33 1479.26 Q1294.9 1476.02 1294.88 1468.78 Q1294.88 1461.74 1294.38 1458.92 Q1293.72 1455.64 1291.94 1454.33 Q1290.18 1453 1288.41 1453 Q1287.74 1453 1287.02 1453.19 Q1286.33 1453.39 1285.32 1453.96 Q1284.3 1454.53 1283.51 1455.94 Q1282.75 1457.34 1282.38 1459.47 Q1281.98 1462.21 1281.98 1468.78 Z" fill="#000000" fill-rule="nonzero" fill-opacity="1"></path><path clip-path="url(#clip630)" d="M1306.17 1484.76 Q1305.4 1483.95 1305.4 1482.89 Q1305.4 1481.82 1306.17 1481.06 Q1306.93 1480.27 1308.09 1480.27 Q1309.21 1480.27 1309.95 1481.01 Q1310.71 1481.73 1310.71 1482.91 Q1310.71 1484.07 1309.9 1484.84 Q1309.11 1485.58 1308.09 1485.58 Q1306.93 1485.58 1306.17 1484.76 Z" fill="#000000" fill-rule="nonzero" fill-opacity="1"></path><path clip-path="url(#clip630)" d="M1317.14 1469.4 Q1317.14 1461.96 1319.01 1457.91 Q1321.63 1451.88 1327.81 1451.88 Q1329.12 1451.88 1330.48 1452.26 Q1331.86 1452.6 1333.59 1453.96 Q1335.34 1455.32 1336.4 1457.54 Q1338.43 1461.84 1338.43 1469.4 Q1338.43 1476.79 1336.55 1480.81 Q1333.81 1486.69 1327.76 1486.69 Q1325.49 1486.69 1323.16 1485.53 Q1320.87 1484.37 1319.41 1481.58 Q1317.14 1477.4 1317.14 1469.4 M1321.34 1468.78 Q1321.34 1476.41 1321.88 1479.45 Q1322.5 1482.74 1324.18 1484.17 Q1325.88 1485.58 1327.76 1485.58 Q1329.78 1485.58 1331.46 1484.07 Q1333.17 1482.54 1333.69 1479.26 Q1334.26 1476.02 1334.23 1468.78 Q1334.23 1461.74 1333.74 1458.92 Q1333.07 1455.64 1331.29 1454.33 Q1329.54 1453 1327.76 1453 Q1327.09 1453 1326.37 1453.19 Q1325.68 1453.39 1324.67 1453.96 Q1323.66 1454.53 1322.87 1455.94 Q1322.1 1457.34 1321.73 1459.47 Q1321.34 1462.21 1321.34 1468.78 Z" fill="#000000" fill-rule="nonzero" fill-opacity="1"></path><path clip-path="url(#clip630)" d="M1800.65 1485.58 Q1800.65 1484.67 1800.73 1484.39 Q1800.82 1484.12 1801.22 1483.7 L1810.93 1472.88 Q1816.24 1466.9 1816.24 1461.69 Q1816.24 1458.31 1814.46 1455.89 Q1812.71 1453.47 1809.47 1453.47 Q1807.25 1453.47 1805.37 1454.82 Q1803.49 1456.18 1802.63 1458.6 Q1802.78 1458.55 1803.29 1458.55 Q1804.55 1458.55 1805.25 1459.34 Q1805.96 1460.14 1805.96 1461.2 Q1805.96 1462.56 1805.07 1463.22 Q1804.21 1463.87 1803.34 1463.87 Q1803 1463.87 1802.53 1463.79 Q1802.08 1463.72 1801.37 1463.03 Q1800.65 1462.31 1800.65 1461.05 Q1800.65 1457.52 1803.32 1454.7 Q1806.01 1451.88 1810.11 1451.88 Q1814.76 1451.88 1817.8 1454.65 Q1820.86 1457.39 1820.86 1461.69 Q1820.86 1463.2 1820.39 1464.58 Q1819.94 1465.94 1819.33 1467 Q1818.73 1468.07 1817.1 1469.77 Q1815.47 1471.47 1814.16 1472.68 Q1812.85 1473.9 1809.92 1476.46 L1804.55 1481.68 L1813.67 1481.68 Q1818.12 1481.68 1818.46 1481.28 Q1818.96 1480.57 1819.57 1476.79 L1820.86 1476.79 L1819.43 1485.58 L1800.65 1485.58 Z" fill="#000000" fill-rule="nonzero" fill-opacity="1"></path><path clip-path="url(#clip630)" d="M1828.49 1484.76 Q1827.73 1483.95 1827.73 1482.89 Q1827.73 1481.82 1828.49 1481.06 Q1829.26 1480.27 1830.42 1480.27 Q1831.53 1480.27 1832.27 1481.01 Q1833.04 1481.73 1833.04 1482.91 Q1833.04 1484.07 1832.22 1484.84 Q1831.43 1485.58 1830.42 1485.58 Q1829.26 1485.58 1828.49 1484.76 Z" fill="#000000" fill-rule="nonzero" fill-opacity="1"></path><path clip-path="url(#clip630)" d="M1840 1477.43 Q1840 1475.92 1840.82 1475.35 Q1841.63 1474.76 1842.5 1474.76 Q1843.66 1474.76 1844.33 1475.5 Q1845.02 1476.22 1845.02 1477.23 Q1845.02 1478.24 1844.33 1478.98 Q1843.66 1479.7 1842.5 1479.7 Q1841.93 1479.7 1841.63 1479.6 Q1842.3 1481.92 1844.33 1483.6 Q1846.38 1485.28 1849.07 1485.28 Q1852.45 1485.28 1854.48 1482 Q1855.69 1479.87 1855.69 1475.06 Q1855.69 1470.81 1854.78 1468.68 Q1853.37 1465.45 1850.48 1465.45 Q1846.38 1465.45 1843.96 1468.98 Q1843.66 1469.42 1843.31 1469.45 Q1842.82 1469.45 1842.7 1469.18 Q1842.6 1468.88 1842.6 1468.11 L1842.6 1453.14 Q1842.6 1451.93 1843.09 1451.93 Q1843.29 1451.93 1843.71 1452.08 Q1846.9 1453.49 1850.43 1453.51 Q1854.06 1453.51 1857.32 1452.03 Q1857.57 1451.88 1857.72 1451.88 Q1858.21 1451.88 1858.23 1452.45 Q1858.23 1452.65 1857.81 1453.24 Q1857.42 1453.81 1856.56 1454.58 Q1855.69 1455.32 1854.58 1456.03 Q1853.47 1456.75 1851.84 1457.25 Q1850.23 1457.71 1848.45 1457.71 Q1846.33 1457.71 1844.15 1457.05 L1844.15 1466.9 Q1846.77 1464.33 1850.58 1464.33 Q1854.63 1464.33 1857.42 1467.6 Q1860.21 1470.86 1860.21 1475.4 Q1860.21 1480.17 1856.9 1483.43 Q1853.62 1486.69 1849.17 1486.69 Q1845.12 1486.69 1842.55 1483.8 Q1840 1480.91 1840 1477.43 Z" fill="#000000" fill-rule="nonzero" fill-opacity="1"></path><path clip-path="url(#clip630)" d="M2322.7 1477.43 Q2322.7 1475.92 2323.52 1475.35 Q2324.33 1474.76 2325.2 1474.76 Q2326.36 1474.76 2327.03 1475.5 Q2327.72 1476.22 2327.72 1477.23 Q2327.72 1478.24 2327.03 1478.98 Q2326.36 1479.7 2325.2 1479.7 Q2324.63 1479.7 2324.33 1479.6 Q2325 1481.92 2327.03 1483.6 Q2329.08 1485.28 2331.77 1485.28 Q2335.15 1485.28 2337.18 1482 Q2338.39 1479.87 2338.39 1475.06 Q2338.39 1470.81 2337.48 1468.68 Q2336.07 1465.45 2333.18 1465.45 Q2329.08 1465.45 2326.66 1468.98 Q2326.36 1469.42 2326.01 1469.45 Q2325.52 1469.45 2325.4 1469.18 Q2325.3 1468.88 2325.3 1468.11 L2325.3 1453.14 Q2325.3 1451.93 2325.79 1451.93 Q2325.99 1451.93 2326.41 1452.08 Q2329.6 1453.49 2333.13 1453.51 Q2336.76 1453.51 2340.02 1452.03 Q2340.27 1451.88 2340.42 1451.88 Q2340.91 1451.88 2340.94 1452.45 Q2340.94 1452.65 2340.52 1453.24 Q2340.12 1453.81 2339.26 1454.58 Q2338.39 1455.32 2337.28 1456.03 Q2336.17 1456.75 2334.54 1457.25 Q2332.93 1457.71 2331.15 1457.71 Q2329.03 1457.71 2326.85 1457.05 L2326.85 1466.9 Q2329.47 1464.33 2333.28 1464.33 Q2337.33 1464.33 2340.12 1467.6 Q2342.91 1470.86 2342.91 1475.4 Q2342.91 1480.17 2339.6 1483.43 Q2336.32 1486.69 2331.87 1486.69 Q2327.82 1486.69 2325.25 1483.8 Q2322.7 1480.91 2322.7 1477.43 Z" fill="#000000" fill-rule="nonzero" fill-opacity="1"></path><path clip-path="url(#clip630)" d="M2350.54 1484.76 Q2349.78 1483.95 2349.78 1482.89 Q2349.78 1481.82 2350.54 1481.06 Q2351.31 1480.27 2352.47 1480.27 Q2353.58 1480.27 2354.32 1481.01 Q2355.09 1481.73 2355.09 1482.91 Q2355.09 1484.07 2354.28 1484.84 Q2353.48 1485.58 2352.47 1485.58 Q2351.31 1485.58 2350.54 1484.76 Z" fill="#000000" fill-rule="nonzero" fill-opacity="1"></path><path clip-path="url(#clip630)" d="M2361.51 1469.4 Q2361.51 1461.96 2363.39 1457.91 Q2366.01 1451.88 2372.19 1451.88 Q2373.49 1451.88 2374.85 1452.26 Q2376.24 1452.6 2377.97 1453.96 Q2379.72 1455.32 2380.78 1457.54 Q2382.81 1461.84 2382.81 1469.4 Q2382.81 1476.79 2380.93 1480.81 Q2378.19 1486.69 2372.14 1486.69 Q2369.86 1486.69 2367.54 1485.53 Q2365.24 1484.37 2363.79 1481.58 Q2361.51 1477.4 2361.51 1469.4 M2365.71 1468.78 Q2365.71 1476.41 2366.26 1479.45 Q2366.87 1482.74 2368.55 1484.17 Q2370.26 1485.58 2372.14 1485.58 Q2374.16 1485.58 2375.84 1484.07 Q2377.55 1482.54 2378.06 1479.26 Q2378.63 1476.02 2378.61 1468.78 Q2378.61 1461.74 2378.11 1458.92 Q2377.45 1455.64 2375.67 1454.33 Q2373.91 1453 2372.14 1453 Q2371.47 1453 2370.75 1453.19 Q2370.06 1453.39 2369.05 1453.96 Q2368.03 1454.53 2367.24 1455.94 Q2366.48 1457.34 2366.11 1459.47 Q2365.71 1462.21 2365.71 1468.78 Z" fill="#000000" fill-rule="nonzero" fill-opacity="1"></path><path clip-path="url(#clip630)" d="M1242.26 1540.22 L1242.26 1538.7 Q1245.45 1538.56 1247.56 1536.32 Q1249.7 1534.04 1250.41 1531.26 Q1251.16 1528.47 1251.23 1525.25 L1252.96 1525.25 L1252.96 1538.05 L1262.91 1538.05 L1262.91 1540.22 L1252.96 1540.22 L1252.96 1559.55 Q1252.96 1567.06 1257.65 1567.06 Q1259.65 1567.06 1260.98 1565.02 Q1262.3 1562.95 1262.3 1559.28 L1262.3 1555.44 L1264.03 1555.44 L1264.03 1559.42 Q1264.03 1563.19 1262.3 1566.01 Q1260.57 1568.83 1257.14 1568.83 Q1255.88 1568.83 1254.63 1568.49 Q1253.4 1568.18 1251.77 1567.36 Q1250.18 1566.52 1249.16 1564.48 Q1248.17 1562.41 1248.17 1559.42 L1248.17 1540.22 L1242.26 1540.22 Z" fill="#000000" fill-rule="nonzero" fill-opacity="1"></path><path clip-path="url(#clip630)" d="M1270.22 1568.04 L1270.22 1565.9 Q1273.92 1565.9 1274.77 1565.46 Q1275.62 1564.99 1275.62 1562.74 L1275.62 1544.03 Q1275.62 1541.45 1274.73 1540.84 Q1273.88 1540.22 1270.49 1540.22 L1270.49 1538.05 L1280.2 1537.3 L1280.2 1562.81 Q1280.2 1564.88 1280.95 1565.39 Q1281.7 1565.9 1285.09 1565.9 L1285.09 1568.04 Q1277.99 1567.84 1277.86 1567.84 Q1276.91 1567.84 1270.22 1568.04 M1273.14 1525.18 Q1273.14 1523.78 1274.19 1522.66 Q1275.28 1521.51 1276.81 1521.51 Q1278.33 1521.51 1279.42 1522.56 Q1280.51 1523.58 1280.51 1525.21 Q1280.51 1526.81 1279.42 1527.86 Q1278.33 1528.88 1276.81 1528.88 Q1275.21 1528.88 1274.16 1527.76 Q1273.14 1526.64 1273.14 1525.18 Z" fill="#000000" fill-rule="nonzero" fill-opacity="1"></path><path clip-path="url(#clip630)" d="M1289.41 1568.04 L1289.41 1565.9 Q1293.11 1565.9 1293.96 1565.46 Q1294.81 1564.99 1294.81 1562.74 L1294.81 1544.1 Q1294.81 1541.52 1293.89 1540.87 Q1293.01 1540.22 1289.41 1540.22 L1289.41 1538.05 L1299.19 1537.3 L1299.19 1544.61 Q1302.45 1537.3 1309.48 1537.3 Q1317.63 1537.3 1318.76 1544.1 Q1319.94 1541.45 1322.42 1539.38 Q1324.94 1537.3 1328.84 1537.3 Q1334.07 1537.3 1336.15 1539.89 Q1337.67 1541.62 1337.98 1543.55 Q1338.29 1545.49 1338.29 1550.52 L1338.29 1563.8 Q1338.35 1565.26 1339.48 1565.6 Q1340.6 1565.9 1343.72 1565.9 L1343.72 1568.04 Q1336.62 1567.84 1335.94 1567.84 Q1335.4 1567.84 1328.06 1568.04 L1328.06 1565.9 Q1331.76 1565.9 1332.61 1565.46 Q1333.5 1564.99 1333.5 1562.74 L1333.5 1546.54 Q1333.5 1543.01 1332.41 1540.94 Q1331.32 1538.83 1328.33 1538.83 Q1324.73 1538.83 1321.85 1541.86 Q1318.96 1544.88 1318.96 1549.97 L1318.96 1562.74 Q1318.96 1564.99 1319.81 1565.46 Q1320.69 1565.9 1324.39 1565.9 L1324.39 1568.04 Q1317.29 1567.84 1316.58 1567.84 Q1316.04 1567.84 1308.73 1568.04 L1308.73 1565.9 Q1312.44 1565.9 1313.29 1565.46 Q1314.17 1564.99 1314.17 1562.74 L1314.17 1546.54 Q1314.17 1543.01 1313.08 1540.94 Q1312 1538.83 1309.01 1538.83 Q1305.41 1538.83 1302.52 1541.86 Q1299.63 1544.88 1299.63 1549.97 L1299.63 1562.74 Q1299.63 1564.99 1300.48 1565.46 Q1301.36 1565.9 1305.03 1565.9 L1305.03 1568.04 Q1297.93 1567.84 1297.25 1567.84 Q1296.71 1567.84 1289.41 1568.04 Z" fill="#000000" fill-rule="nonzero" fill-opacity="1"></path><path clip-path="url(#clip630)" d="M1347.02 1552.72 Q1347.02 1546.17 1351.23 1541.52 Q1355.44 1536.86 1361.49 1536.86 Q1367.6 1536.86 1370.76 1540.84 Q1373.95 1544.81 1373.95 1550.52 Q1373.95 1551.57 1373.68 1551.77 Q1373.41 1551.98 1372.22 1551.98 L1352.79 1551.98 Q1352.79 1559.08 1354.9 1562.41 Q1357.82 1567.06 1362.74 1567.06 Q1363.42 1567.06 1364.24 1566.92 Q1365.05 1566.79 1366.72 1566.21 Q1368.38 1565.6 1369.84 1564 Q1371.3 1562.41 1372.15 1559.89 Q1372.36 1558.91 1373.03 1558.94 Q1373.95 1558.94 1373.95 1559.76 Q1373.95 1560.37 1373.27 1561.76 Q1372.63 1563.12 1371.37 1564.75 Q1370.11 1566.38 1367.67 1567.6 Q1365.26 1568.83 1362.34 1568.83 Q1356.22 1568.83 1351.6 1564.21 Q1347.02 1559.55 1347.02 1552.72 M1352.86 1550.52 L1369.37 1550.52 Q1369.37 1549.06 1369.09 1547.43 Q1368.86 1545.8 1368.11 1543.55 Q1367.4 1541.28 1365.7 1539.85 Q1364 1538.42 1361.49 1538.42 Q1360.36 1538.42 1359.14 1538.9 Q1357.95 1539.38 1356.49 1540.53 Q1355.03 1541.69 1354.01 1544.3 Q1352.99 1546.92 1352.86 1550.52 Z" fill="#000000" fill-rule="nonzero" fill-opacity="1"></path><polyline clip-path="url(#clip630)" style="stroke:#000000; stroke-linecap:round; stroke-linejoin:round; stroke-width:4; stroke-opacity:1; fill:none" points="263.457,1423.18 263.457,123.472 "></polyline>
<polyline clip-path="url(#clip630)" style="stroke:#000000; stroke-linecap:round; stroke-linejoin:round; stroke-width:4; stroke-opacity:1; fill:none" points="263.457,1423.18 282.355,1423.18 "></polyline>
<polyline clip-path="url(#clip630)" style="stroke:#000000; stroke-linecap:round; stroke-linejoin:round; stroke-width:4; stroke-opacity:1; fill:none" points="263.457,701.12 282.355,701.12 "></polyline>
<path clip-path="url(#clip630)" d="M114.26 1418.03 L114.26 1416.45 Q120.337 1416.45 123.475 1413.21 Q124.339 1413.21 124.487 1413.41 Q124.636 1413.61 124.636 1414.52 L124.636 1442.91 Q124.636 1444.41 125.377 1444.88 Q126.118 1445.35 129.354 1445.35 L130.96 1445.35 L130.96 1446.91 Q129.181 1446.76 122.758 1446.76 Q116.335 1446.76 114.581 1446.91 L114.581 1445.35 L116.187 1445.35 Q119.374 1445.35 120.14 1444.91 Q120.905 1444.44 120.905 1442.91 L120.905 1416.7 Q118.262 1418.03 114.26 1418.03 Z" fill="#000000" fill-rule="nonzero" fill-opacity="1"></path><path clip-path="url(#clip630)" d="M137.037 1430.73 Q137.037 1423.29 138.914 1419.24 Q141.533 1413.21 147.709 1413.21 Q149.018 1413.21 150.376 1413.58 Q151.76 1413.93 153.489 1415.29 Q155.243 1416.65 156.305 1418.87 Q158.331 1423.17 158.331 1430.73 Q158.331 1438.11 156.453 1442.14 Q153.711 1448.02 147.659 1448.02 Q145.386 1448.02 143.064 1446.86 Q140.767 1445.7 139.309 1442.91 Q137.037 1438.73 137.037 1430.73 M141.236 1430.11 Q141.236 1437.74 141.78 1440.78 Q142.397 1444.07 144.077 1445.5 Q145.782 1446.91 147.659 1446.91 Q149.685 1446.91 151.365 1445.4 Q153.069 1443.87 153.588 1440.58 Q154.156 1437.35 154.131 1430.11 Q154.131 1423.07 153.637 1420.25 Q152.97 1416.97 151.192 1415.66 Q149.438 1414.32 147.659 1414.32 Q146.992 1414.32 146.276 1414.52 Q145.584 1414.72 144.571 1415.29 Q143.558 1415.86 142.768 1417.26 Q142.002 1418.67 141.631 1420.8 Q141.236 1423.54 141.236 1430.11 Z" fill="#000000" fill-rule="nonzero" fill-opacity="1"></path><path clip-path="url(#clip630)" d="M185.468 1408.64 Q185.708 1408.88 185.708 1409.22 Q185.708 1409.56 185.468 1409.8 Q185.227 1410.04 184.886 1410.04 L159.154 1410.04 Q158.813 1410.04 158.572 1409.8 Q158.331 1409.56 158.331 1409.22 Q158.331 1408.88 158.572 1408.64 Q158.813 1408.4 159.154 1408.4 L184.886 1408.4 Q185.227 1408.4 185.468 1408.64 Z" fill="#000000" fill-rule="nonzero" fill-opacity="1"></path><path clip-path="url(#clip630)" d="M191.65 1396.03 L191.65 1394.75 Q196.587 1394.75 199.136 1392.12 Q199.839 1392.12 199.959 1392.28 Q200.08 1392.44 200.08 1393.18 L200.08 1416.25 Q200.08 1417.47 200.682 1417.85 Q201.284 1418.23 203.913 1418.23 L205.218 1418.23 L205.218 1419.5 Q203.773 1419.38 198.554 1419.38 Q193.336 1419.38 191.911 1419.5 L191.911 1418.23 L193.215 1418.23 Q195.804 1418.23 196.427 1417.87 Q197.049 1417.49 197.049 1416.25 L197.049 1394.95 Q194.901 1396.03 191.65 1396.03 Z" fill="#000000" fill-rule="nonzero" fill-opacity="1"></path><path clip-path="url(#clip630)" d="M210.156 1406.35 Q210.156 1400.31 211.681 1397.02 Q213.809 1392.12 218.826 1392.12 Q219.89 1392.12 220.994 1392.42 Q222.118 1392.7 223.523 1393.81 Q224.948 1394.91 225.811 1396.72 Q227.457 1400.21 227.457 1406.35 Q227.457 1412.35 225.932 1415.62 Q223.704 1420.4 218.786 1420.4 Q216.94 1420.4 215.053 1419.46 Q213.186 1418.51 212.002 1416.25 Q210.156 1412.85 210.156 1406.35 M213.568 1405.85 Q213.568 1412.05 214.009 1414.52 Q214.511 1417.19 215.876 1418.35 Q217.261 1419.5 218.786 1419.5 Q220.432 1419.5 221.797 1418.27 Q223.182 1417.03 223.603 1414.36 Q224.065 1411.73 224.045 1405.85 Q224.045 1400.13 223.644 1397.84 Q223.102 1395.17 221.656 1394.11 Q220.231 1393.02 218.786 1393.02 Q218.244 1393.02 217.662 1393.18 Q217.1 1393.34 216.277 1393.81 Q215.454 1394.27 214.812 1395.41 Q214.19 1396.56 213.889 1398.28 Q213.568 1400.51 213.568 1405.85 Z" fill="#000000" fill-rule="nonzero" fill-opacity="1"></path><path clip-path="url(#clip630)" d="M135.255 695.969 L135.255 694.388 Q141.332 694.388 144.469 691.152 Q145.334 691.152 145.482 691.35 Q145.63 691.547 145.63 692.461 L145.63 720.846 Q145.63 722.353 146.371 722.822 Q147.113 723.291 150.349 723.291 L151.954 723.291 L151.954 724.848 Q150.176 724.699 143.753 724.699 Q137.33 724.699 135.576 724.848 L135.576 723.291 L137.182 723.291 Q140.369 723.291 141.134 722.847 Q141.9 722.377 141.9 720.846 L141.9 694.635 Q139.257 695.969 135.255 695.969 Z" fill="#000000" fill-rule="nonzero" fill-opacity="1"></path><path clip-path="url(#clip630)" d="M158.031 708.667 Q158.031 701.231 159.909 697.18 Q162.527 691.152 168.703 691.152 Q170.013 691.152 171.371 691.523 Q172.755 691.869 174.484 693.227 Q176.238 694.586 177.3 696.809 Q179.326 701.108 179.326 708.667 Q179.326 716.053 177.448 720.08 Q174.706 725.959 168.654 725.959 Q166.381 725.959 164.059 724.798 Q161.762 723.637 160.304 720.846 Q158.031 716.671 158.031 708.667 M162.231 708.049 Q162.231 715.683 162.774 718.721 Q163.392 722.007 165.072 723.44 Q166.776 724.848 168.654 724.848 Q170.68 724.848 172.359 723.341 Q174.064 721.809 174.583 718.524 Q175.151 715.287 175.126 708.049 Q175.126 701.009 174.632 698.193 Q173.965 694.907 172.186 693.598 Q170.433 692.264 168.654 692.264 Q167.987 692.264 167.27 692.461 Q166.579 692.659 165.566 693.227 Q164.553 693.795 163.763 695.204 Q162.997 696.612 162.626 698.736 Q162.231 701.478 162.231 708.049 Z" fill="#000000" fill-rule="nonzero" fill-opacity="1"></path><path clip-path="url(#clip630)" d="M206.462 686.579 Q206.703 686.819 206.703 687.161 Q206.703 687.502 206.462 687.743 Q206.222 687.984 205.88 687.984 L180.149 687.984 Q179.807 687.984 179.567 687.743 Q179.326 687.502 179.326 687.161 Q179.326 686.819 179.567 686.579 Q179.807 686.338 180.149 686.338 L205.88 686.338 Q206.222 686.338 206.462 686.579 Z" fill="#000000" fill-rule="nonzero" fill-opacity="1"></path><path clip-path="url(#clip630)" d="M211.039 690.814 Q211.039 689.589 211.701 689.128 Q212.363 688.646 213.066 688.646 Q214.009 688.646 214.551 689.248 Q215.113 689.83 215.113 690.653 Q215.113 691.476 214.551 692.078 Q214.009 692.66 213.066 692.66 Q212.604 692.66 212.363 692.58 Q212.905 694.467 214.551 695.831 Q216.217 697.196 218.405 697.196 Q221.155 697.196 222.801 694.527 Q223.784 692.801 223.784 688.887 Q223.784 685.434 223.041 683.708 Q221.897 681.079 219.549 681.079 Q216.217 681.079 214.25 683.949 Q214.009 684.31 213.728 684.331 Q213.327 684.331 213.226 684.11 Q213.146 683.869 213.146 683.247 L213.146 671.083 Q213.146 670.1 213.548 670.1 Q213.708 670.1 214.049 670.22 Q216.639 671.364 219.509 671.384 Q222.459 671.384 225.109 670.18 Q225.309 670.06 225.43 670.06 Q225.831 670.06 225.851 670.521 Q225.851 670.682 225.51 671.164 Q225.189 671.625 224.487 672.247 Q223.784 672.85 222.881 673.432 Q221.978 674.014 220.653 674.415 Q219.348 674.797 217.903 674.797 Q216.177 674.797 214.411 674.255 L214.411 682.263 Q216.538 680.176 219.629 680.176 Q222.921 680.176 225.189 682.825 Q227.457 685.475 227.457 689.168 Q227.457 693.042 224.768 695.691 Q222.098 698.34 218.485 698.34 Q215.193 698.34 213.106 695.992 Q211.039 693.644 211.039 690.814 Z" fill="#000000" fill-rule="nonzero" fill-opacity="1"></path><path clip-path="url(#clip630)" d="M80.5445 834.012 L19.1279 834.012 Q16.6803 834.012 16.6803 832.692 Q16.6803 831.371 18.6449 831.371 L80.0614 831.371 Q82.5091 831.371 82.5091 832.692 Q82.5091 834.012 80.5445 834.012 Z" fill="#000000" fill-rule="nonzero" fill-opacity="1"></path><path clip-path="url(#clip630)" d="M58.4513 781.376 Q58.7412 781.119 59.031 781.119 Q59.3209 781.119 60.1582 781.763 Q60.9956 782.375 62.1228 783.695 Q63.25 785.016 64.3128 786.723 Q65.3756 788.43 66.0841 790.942 Q66.8248 793.454 66.8248 796.095 Q66.8248 801.022 63.572 803.921 Q60.3192 806.787 55.6494 806.787 Q51.1084 806.787 46.7606 804.243 Q42.3806 801.698 39.6753 797.576 Q36.9378 793.454 36.9378 789.106 Q36.9378 785.66 38.5481 783.502 Q40.1584 781.344 42.606 781.344 Q44.5062 781.344 45.6656 782.439 Q46.825 783.534 46.825 785.016 Q46.825 786.046 46.2453 786.755 Q45.6334 787.463 44.5062 787.463 Q43.0569 787.463 41.9297 786.272 Q41.4788 785.821 41.2856 785.306 Q41.0601 784.758 41.0601 784.436 Q41.0279 784.114 41.0279 783.373 Q39.7719 784.05 39.0956 785.66 Q38.3871 787.238 38.3871 789.041 Q38.3871 791.715 40.255 794.259 Q42.0907 796.803 44.9893 798.349 Q47.8234 799.895 51.8491 800.893 Q55.8426 801.892 58.1615 801.892 Q61.3498 801.892 63.3466 800.41 Q65.3434 798.929 65.3434 795.966 Q65.3434 795.386 65.3112 794.774 Q65.2789 794.13 64.9247 792.52 Q64.5704 790.877 63.9585 789.428 Q63.3466 787.979 62.0262 786.143 Q60.6735 784.275 58.8378 782.794 Q58.1615 782.278 58.1615 781.924 Q58.1615 781.634 58.4513 781.376 Z" fill="#000000" fill-rule="nonzero" fill-opacity="1"></path><path clip-path="url(#clip630)" d="M72.3405 749.301 Q72.5209 749.301 73.2198 749.504 Q73.9186 749.707 75.0008 750.203 Q76.0829 750.676 77.0748 751.33 Q78.0442 751.984 78.7656 753.066 Q79.4645 754.126 79.4645 755.343 Q79.4645 756.966 78.3824 758.048 Q77.3003 759.13 75.6771 759.13 Q74.7753 759.13 73.5354 758.657 Q65.5322 755.659 62.7818 755.659 Q59.558 755.659 59.558 758.161 Q59.558 759.401 60.0315 760.573 Q60.4823 761.723 61.1136 762.512 Q61.7448 763.301 62.624 764.022 Q63.4807 764.721 64.0669 765.082 Q64.6305 765.42 65.1941 765.691 L67.4936 766.277 Q68.1248 766.412 70.5821 767.066 L74.7528 768.08 Q77.8639 768.802 78.1569 768.96 Q78.7882 769.185 79.1263 769.681 Q79.4645 770.177 79.4645 770.673 Q79.4645 771.236 79.1263 771.62 Q78.7882 772.003 78.202 772.003 Q78.1118 772.003 77.7737 771.935 Q77.4355 771.868 76.9621 771.755 Q76.4887 771.642 76.2181 771.597 L65.5548 768.914 Q63.616 768.418 63.0073 768.306 Q62.3761 768.17 61.6772 768.17 Q59.558 768.17 59.558 769.613 Q59.558 770.786 60.9558 771.552 Q62.3535 772.319 65.0588 772.972 Q65.8028 773.175 65.9606 773.311 Q66.1184 773.423 66.1184 773.761 Q66.0958 774.325 65.6449 774.325 Q65.5322 774.325 64.7883 774.145 Q64.0443 773.964 62.9847 773.626 Q61.9026 773.265 61.1812 772.927 Q60.6402 772.634 60.3922 772.476 Q60.1216 772.296 59.6031 771.868 Q59.0621 771.417 58.8141 770.831 Q58.5436 770.222 58.5436 769.478 Q58.5436 767.81 59.6257 766.592 Q60.6852 765.375 62.5564 765.217 Q58.5436 762.219 58.5436 758.026 Q58.5436 755.546 59.8511 754.126 Q61.1587 752.705 63.4807 752.705 Q64.0218 752.705 64.7206 752.818 Q65.397 752.908 66.2536 753.134 Q67.1103 753.336 67.7641 753.517 Q68.4179 753.697 69.4774 754.058 Q70.5145 754.419 70.9654 754.576 Q71.4162 754.734 72.4758 755.117 Q73.5128 755.478 73.6256 755.523 Q75.7222 756.357 76.917 756.357 Q77.706 756.357 78.0667 756.109 Q78.4275 755.839 78.4275 755.253 Q78.4275 753.675 76.8719 752.502 Q75.2938 751.307 72.7238 750.541 Q72.1602 750.361 72.0249 750.27 Q71.8897 750.158 71.8897 749.842 Q71.8897 749.301 72.3405 749.301 Z" fill="#000000" fill-rule="nonzero" fill-opacity="1"></path><path clip-path="url(#clip630)" d="M80.5445 739.865 L19.1279 739.865 Q16.6803 739.865 16.6803 738.545 Q16.6803 737.224 18.6449 737.224 L80.0614 737.224 Q82.5091 737.224 82.5091 738.545 Q82.5091 739.865 80.5445 739.865 Z" fill="#000000" fill-rule="nonzero" fill-opacity="1"></path><path clip-path="url(#clip630)" d="M948.642 37.1699 L948.642 35.2245 Q952.705 35.0516 955.386 32.1984 Q958.109 29.3019 959.017 25.757 Q959.968 22.212 960.055 18.1051 L962.259 18.1051 L962.259 34.4031 L974.926 34.4031 L974.926 37.1699 L962.259 37.1699 L962.259 61.7683 Q962.259 71.3223 968.225 71.3223 Q970.776 71.3223 972.462 68.7285 Q974.148 66.0914 974.148 61.4224 L974.148 56.5373 L976.353 56.5373 L976.353 61.5954 Q976.353 66.394 974.148 69.9821 Q971.943 73.5703 967.577 73.5703 Q965.977 73.5703 964.378 73.138 Q962.821 72.7489 960.746 71.7114 Q958.715 70.6306 957.418 68.0368 Q956.164 65.3997 956.164 61.5954 L956.164 37.1699 L948.642 37.1699 Z" fill="#000000" fill-rule="nonzero" fill-opacity="1"></path><path clip-path="url(#clip630)" d="M983.745 72.576 L983.745 69.8525 Q988.457 69.8525 989.538 69.2905 Q990.662 68.6852 990.662 65.832 L990.662 42.0982 Q990.662 38.8127 989.495 37.9913 Q988.371 37.1699 983.745 37.1699 L983.745 34.4031 L996.066 33.4521 L996.066 43.179 Q997.32 39.3747 999.957 36.435 Q1002.64 33.4521 1006.96 33.4521 Q1009.81 33.4521 1011.63 35.0516 Q1013.49 36.6511 1013.49 38.8559 Q1013.49 40.8013 1012.28 41.7956 Q1011.11 42.7467 1009.68 42.7467 Q1008.08 42.7467 1006.96 41.7524 Q1005.88 40.7148 1005.88 38.9424 Q1005.88 37.8616 1006.35 37.0402 Q1006.87 36.1756 1007.26 35.873 Q1007.65 35.5704 1007.91 35.4839 Q1007.74 35.3974 1006.96 35.3974 Q1002.08 35.3974 999.265 40.2825 Q996.498 45.1244 996.498 52.0413 L996.498 65.6591 Q996.498 68.2097 997.536 69.0311 Q998.617 69.8525 1003.24 69.8525 L1005.1 69.8525 L1005.1 72.576 Q1001.56 72.3166 993.861 72.3166 Q992.78 72.3166 991.094 72.3598 Q989.408 72.4031 987.204 72.4895 Q984.999 72.576 983.745 72.576 Z" fill="#000000" fill-rule="nonzero" fill-opacity="1"></path><path clip-path="url(#clip630)" d="M1019.58 64.146 Q1019.58 56.6238 1028.45 52.6466 Q1033.76 50.0959 1044.74 49.4475 L1044.74 46.2052 Q1044.74 40.7148 1041.85 37.8184 Q1038.99 34.8787 1035.36 34.8787 Q1028.88 34.8787 1025.77 38.9424 Q1028.4 39.0288 1029.35 40.369 Q1030.3 41.6659 1030.3 43.0061 Q1030.3 44.7785 1029.18 45.9458 Q1028.1 47.0698 1026.24 47.0698 Q1024.47 47.0698 1023.3 45.989 Q1022.13 44.865 1022.13 42.9196 Q1022.13 38.5965 1026.03 35.7433 Q1029.96 32.8901 1035.54 32.8901 Q1042.8 32.8901 1047.64 37.7751 Q1049.15 39.2882 1049.89 41.2336 Q1050.67 43.179 1050.75 44.4759 Q1050.84 45.7296 1050.84 48.237 L1050.84 65.9184 Q1050.84 66.4372 1051.01 67.3018 Q1051.19 68.1665 1051.96 69.2905 Q1052.78 70.3712 1054.13 70.3712 Q1057.32 70.3712 1057.28 64.708 L1057.28 59.7364 L1059.53 59.7364 L1059.53 64.708 Q1059.53 69.4201 1057.02 71.2791 Q1054.56 73.0948 1052.27 73.0948 Q1049.33 73.0948 1047.47 70.9332 Q1045.61 68.7717 1045.35 65.832 Q1044.01 69.204 1040.94 71.4088 Q1037.91 73.5703 1033.76 73.5703 Q1030.56 73.5703 1027.54 72.7489 Q1024.56 71.9708 1022.05 69.766 Q1019.58 67.518 1019.58 64.146 M1026.41 64.0595 Q1026.41 67.3451 1028.75 69.4634 Q1031.08 71.5817 1034.37 71.5817 Q1038.09 71.5817 1041.42 68.7285 Q1044.74 65.832 1044.74 60.1687 L1044.74 51.3064 Q1034.93 51.6523 1030.65 55.5863 Q1026.41 59.477 1026.41 64.0595 Z" fill="#000000" fill-rule="nonzero" fill-opacity="1"></path><path clip-path="url(#clip630)" d="M1062.99 72.576 L1062.99 69.8525 Q1067.7 69.8525 1068.78 69.2905 Q1069.86 68.6852 1069.86 65.832 L1069.86 42.0982 Q1069.86 38.8127 1068.69 37.9913 Q1067.57 37.1699 1062.99 37.1699 L1062.99 34.4031 L1075.44 33.4521 L1075.44 42.7467 Q1079.59 33.4521 1088.54 33.4521 Q1095.19 33.4521 1097.83 36.7376 Q1099.78 38.9424 1100.17 41.4065 Q1100.6 43.8707 1100.6 50.2689 L1100.6 67.1721 Q1100.68 69.0311 1102.11 69.4634 Q1103.54 69.8525 1107.52 69.8525 L1107.52 72.576 Q1098.48 72.3166 1097.57 72.3166 Q1096.88 72.3166 1087.59 72.576 L1087.59 69.8525 Q1092.3 69.8525 1093.38 69.2905 Q1094.5 68.6852 1094.5 65.832 L1094.5 45.2109 Q1094.5 40.7148 1093.12 38.0778 Q1091.74 35.3974 1087.93 35.3974 Q1083.35 35.3974 1079.67 39.245 Q1076 43.0925 1076 49.5772 L1076 65.832 Q1076 68.6852 1077.08 69.2905 Q1078.2 69.8525 1082.87 69.8525 L1082.87 72.576 Q1073.84 72.3166 1072.97 72.3166 Q1072.28 72.3166 1062.99 72.576 Z" fill="#000000" fill-rule="nonzero" fill-opacity="1"></path><path clip-path="url(#clip630)" d="M1112.18 71.4088 L1112.18 59.7364 Q1112.18 58.7421 1112.23 58.3963 Q1112.27 58.0504 1112.53 57.791 Q1112.79 57.5317 1113.31 57.5317 Q1113.91 57.5317 1114.13 57.791 Q1114.39 58.0504 1114.56 59.0447 Q1115.9 65.1403 1118.76 68.3826 Q1121.65 71.5817 1126.88 71.5817 Q1131.85 71.5817 1134.36 69.3769 Q1136.87 67.1721 1136.87 63.5407 Q1136.87 57.0561 1127.66 55.4133 Q1122.34 54.3326 1120.14 53.6409 Q1117.93 52.9059 1115.99 51.3064 Q1112.18 48.1938 1112.18 43.7842 Q1112.18 39.3747 1115.51 36.1324 Q1118.88 32.8901 1126.32 32.8901 Q1131.29 32.8901 1134.66 35.3974 Q1135.66 34.6193 1136.18 33.9708 Q1137.34 32.8901 1137.95 32.8901 Q1138.64 32.8901 1138.77 33.3656 Q1138.9 33.7979 1138.9 35.0516 L1138.9 43.9572 Q1138.9 44.9515 1138.86 45.2973 Q1138.81 45.6432 1138.56 45.9025 Q1138.3 46.1187 1137.73 46.1187 Q1136.74 46.1187 1136.7 45.2973 Q1136 34.5761 1126.32 34.5761 Q1121.09 34.5761 1118.76 36.6079 Q1116.42 38.5965 1116.42 41.3201 Q1116.42 42.8332 1117.11 44.0004 Q1117.85 45.1244 1118.76 45.8161 Q1119.71 46.4645 1121.44 47.113 Q1123.16 47.7182 1124.2 47.9344 Q1125.28 48.1506 1127.31 48.5829 Q1134.4 49.923 1137.39 52.8195 Q1141.11 56.5373 1141.11 61.2495 Q1141.11 66.4804 1137.56 70.0254 Q1134.02 73.5703 1126.88 73.5703 Q1121.13 73.5703 1117.11 69.7228 Q1116.59 70.2415 1116.2 70.7171 Q1115.82 71.1494 1115.64 71.3223 Q1115.51 71.4952 1115.47 71.6249 Q1115.43 71.7114 1115.34 71.7978 Q1113.57 73.5703 1113.14 73.5703 Q1112.44 73.5703 1112.31 73.0948 Q1112.18 72.6625 1112.18 71.4088 Z" fill="#000000" fill-rule="nonzero" fill-opacity="1"></path><path clip-path="url(#clip630)" d="M1147.03 72.576 L1147.03 69.8525 Q1151.74 69.8525 1152.82 69.2905 Q1153.9 68.6852 1153.9 65.832 L1153.9 42.0118 Q1153.9 38.7262 1152.78 37.9481 Q1151.7 37.1699 1147.37 37.1699 L1147.37 34.4031 L1159.74 33.4521 L1159.74 65.9184 Q1159.74 68.5555 1160.69 69.204 Q1161.64 69.8525 1165.96 69.8525 L1165.96 72.576 Q1156.93 72.3166 1156.76 72.3166 Q1155.54 72.3166 1147.03 72.576 M1150.75 18.0186 Q1150.75 16.2462 1152.09 14.8195 Q1153.47 13.3497 1155.42 13.3497 Q1157.36 13.3497 1158.74 14.6899 Q1160.13 15.9868 1160.13 18.0619 Q1160.13 20.0937 1158.74 21.4339 Q1157.36 22.7308 1155.42 22.7308 Q1153.38 22.7308 1152.04 21.3042 Q1150.75 19.8776 1150.75 18.0186 Z" fill="#000000" fill-rule="nonzero" fill-opacity="1"></path><path clip-path="url(#clip630)" d="M1170.29 37.1699 L1170.29 35.2245 Q1174.35 35.0516 1177.03 32.1984 Q1179.75 29.3019 1180.66 25.757 Q1181.61 22.212 1181.7 18.1051 L1183.9 18.1051 L1183.9 34.4031 L1196.57 34.4031 L1196.57 37.1699 L1183.9 37.1699 L1183.9 61.7683 Q1183.9 71.3223 1189.87 71.3223 Q1192.42 71.3223 1194.11 68.7285 Q1195.79 66.0914 1195.79 61.4224 L1195.79 56.5373 L1198 56.5373 L1198 61.5954 Q1198 66.394 1195.79 69.9821 Q1193.59 73.5703 1189.22 73.5703 Q1187.62 73.5703 1186.02 73.138 Q1184.47 72.7489 1182.39 71.7114 Q1180.36 70.6306 1179.06 68.0368 Q1177.81 65.3997 1177.81 61.5954 L1177.81 37.1699 L1170.29 37.1699 Z" fill="#000000" fill-rule="nonzero" fill-opacity="1"></path><path clip-path="url(#clip630)" d="M1205.87 72.576 L1205.87 69.8525 Q1210.58 69.8525 1211.66 69.2905 Q1212.74 68.6852 1212.74 65.832 L1212.74 42.0118 Q1212.74 38.7262 1211.62 37.9481 Q1210.53 37.1699 1206.21 37.1699 L1206.21 34.4031 L1218.58 33.4521 L1218.58 65.9184 Q1218.58 68.5555 1219.53 69.204 Q1220.48 69.8525 1224.8 69.8525 L1224.8 72.576 Q1215.77 72.3166 1215.59 72.3166 Q1214.38 72.3166 1205.87 72.576 M1209.58 18.0186 Q1209.58 16.2462 1210.92 14.8195 Q1212.31 13.3497 1214.25 13.3497 Q1216.2 13.3497 1217.58 14.6899 Q1218.96 15.9868 1218.96 18.0619 Q1218.96 20.0937 1217.58 21.4339 Q1216.2 22.7308 1214.25 22.7308 Q1212.22 22.7308 1210.88 21.3042 Q1209.58 19.8776 1209.58 18.0186 Z" fill="#000000" fill-rule="nonzero" fill-opacity="1"></path><path clip-path="url(#clip630)" d="M1235.74 67.8206 Q1229.9 62.0277 1229.9 53.6409 Q1229.9 45.2109 1235.61 39.0721 Q1241.36 32.8901 1249.57 32.8901 Q1257.61 32.8901 1263.36 39.0288 Q1269.16 45.1244 1269.16 53.6409 Q1269.16 61.9844 1263.32 67.7774 Q1257.53 73.5703 1249.49 73.5703 Q1241.62 73.5703 1235.74 67.8206 M1237.25 52.9059 Q1237.25 61.5089 1239.5 65.3997 Q1242.96 71.3223 1249.57 71.3223 Q1252.86 71.3223 1255.58 69.5498 Q1258.35 67.7774 1259.86 64.7944 Q1261.81 60.9037 1261.81 52.9059 Q1261.81 44.3895 1259.47 40.6284 Q1256.01 34.8787 1249.49 34.8787 Q1246.63 34.8787 1243.82 36.3918 Q1241.06 37.8616 1239.37 40.8013 Q1237.25 44.6921 1237.25 52.9059 Z" fill="#000000" fill-rule="nonzero" fill-opacity="1"></path><path clip-path="url(#clip630)" d="M1274.56 72.576 L1274.56 69.8525 Q1279.27 69.8525 1280.35 69.2905 Q1281.43 68.6852 1281.43 65.832 L1281.43 42.0982 Q1281.43 38.8127 1280.27 37.9913 Q1279.14 37.1699 1274.56 37.1699 L1274.56 34.4031 L1287.01 33.4521 L1287.01 42.7467 Q1291.16 33.4521 1300.11 33.4521 Q1306.77 33.4521 1309.4 36.7376 Q1311.35 38.9424 1311.74 41.4065 Q1312.17 43.8707 1312.17 50.2689 L1312.17 67.1721 Q1312.26 69.0311 1313.68 69.4634 Q1315.11 69.8525 1319.09 69.8525 L1319.09 72.576 Q1310.05 72.3166 1309.14 72.3166 Q1308.45 72.3166 1299.16 72.576 L1299.16 69.8525 Q1303.87 69.8525 1304.95 69.2905 Q1306.07 68.6852 1306.07 65.832 L1306.07 45.2109 Q1306.07 40.7148 1304.69 38.0778 Q1303.31 35.3974 1299.5 35.3974 Q1294.92 35.3974 1291.25 39.245 Q1287.57 43.0925 1287.57 49.5772 L1287.57 65.832 Q1287.57 68.6852 1288.65 69.2905 Q1289.78 69.8525 1294.45 69.8525 L1294.45 72.576 Q1285.41 72.3166 1284.55 72.3166 Q1283.85 72.3166 1274.56 72.576 Z" fill="#000000" fill-rule="nonzero" fill-opacity="1"></path><path clip-path="url(#clip630)" d="M1353.11 72.576 L1353.11 69.8525 Q1357.82 69.8525 1358.9 69.2905 Q1359.98 68.6852 1359.98 65.832 L1359.98 19.7911 Q1359.98 16.5055 1358.82 15.6842 Q1357.69 14.8628 1353.11 14.8628 L1353.11 12.096 L1365.82 11.1449 L1365.82 41.9253 L1365.91 41.9253 Q1367.33 38.7262 1370.53 36.0891 Q1373.73 33.4521 1378.66 33.4521 Q1385.32 33.4521 1387.95 36.7376 Q1389.9 38.9424 1390.29 41.4065 Q1390.72 43.8707 1390.72 50.2689 L1390.72 67.1721 Q1390.81 69.0311 1392.23 69.4634 Q1393.66 69.8525 1397.64 69.8525 L1397.64 72.576 Q1388.6 72.3166 1387.69 72.3166 Q1387 72.3166 1377.71 72.576 L1377.71 69.8525 Q1382.42 69.8525 1383.5 69.2905 Q1384.63 68.6852 1384.63 65.832 L1384.63 45.2109 Q1384.63 40.7148 1383.24 38.0778 Q1381.86 35.3974 1378.05 35.3974 Q1373.47 35.3974 1369.8 39.245 Q1366.12 43.0925 1366.12 49.5772 L1366.12 65.832 Q1366.12 68.6852 1367.2 69.2905 Q1368.33 69.8525 1373 69.8525 L1373 72.576 Q1363.96 72.3166 1363.1 72.3166 Q1362.4 72.3166 1353.11 72.576 Z" fill="#000000" fill-rule="nonzero" fill-opacity="1"></path><path clip-path="url(#clip630)" d="M1402.31 72.576 L1402.31 69.8525 Q1407.02 69.8525 1408.1 69.2905 Q1409.18 68.6852 1409.18 65.832 L1409.18 42.0118 Q1409.18 38.7262 1408.06 37.9481 Q1406.98 37.1699 1402.65 37.1699 L1402.65 34.4031 L1415.02 33.4521 L1415.02 65.9184 Q1415.02 68.5555 1415.97 69.204 Q1416.92 69.8525 1421.24 69.8525 L1421.24 72.576 Q1412.21 72.3166 1412.03 72.3166 Q1410.82 72.3166 1402.31 72.576 M1406.02 18.0186 Q1406.02 16.2462 1407.36 14.8195 Q1408.75 13.3497 1410.69 13.3497 Q1412.64 13.3497 1414.02 14.6899 Q1415.41 15.9868 1415.41 18.0619 Q1415.41 20.0937 1414.02 21.4339 Q1412.64 22.7308 1410.69 22.7308 Q1408.66 22.7308 1407.32 21.3042 Q1406.02 19.8776 1406.02 18.0186 Z" fill="#000000" fill-rule="nonzero" fill-opacity="1"></path><path clip-path="url(#clip630)" d="M1426.82 71.4088 L1426.82 59.7364 Q1426.82 58.7421 1426.86 58.3963 Q1426.9 58.0504 1427.16 57.791 Q1427.42 57.5317 1427.94 57.5317 Q1428.55 57.5317 1428.76 57.791 Q1429.02 58.0504 1429.2 59.0447 Q1430.54 65.1403 1433.39 68.3826 Q1436.29 71.5817 1441.52 71.5817 Q1446.49 71.5817 1449 69.3769 Q1451.5 67.1721 1451.5 63.5407 Q1451.5 57.0561 1442.3 55.4133 Q1436.98 54.3326 1434.77 53.6409 Q1432.57 52.9059 1430.62 51.3064 Q1426.82 48.1938 1426.82 43.7842 Q1426.82 39.3747 1430.15 36.1324 Q1433.52 32.8901 1440.96 32.8901 Q1445.93 32.8901 1449.3 35.3974 Q1450.29 34.6193 1450.81 33.9708 Q1451.98 32.8901 1452.58 32.8901 Q1453.28 32.8901 1453.41 33.3656 Q1453.54 33.7979 1453.54 35.0516 L1453.54 43.9572 Q1453.54 44.9515 1453.49 45.2973 Q1453.45 45.6432 1453.19 45.9025 Q1452.93 46.1187 1452.37 46.1187 Q1451.37 46.1187 1451.33 45.2973 Q1450.64 34.5761 1440.96 34.5761 Q1435.72 34.5761 1433.39 36.6079 Q1431.06 38.5965 1431.06 41.3201 Q1431.06 42.8332 1431.75 44.0004 Q1432.48 45.1244 1433.39 45.8161 Q1434.34 46.4645 1436.07 47.113 Q1437.8 47.7182 1438.84 47.9344 Q1439.92 48.1506 1441.95 48.5829 Q1449.04 49.923 1452.02 52.8195 Q1455.74 56.5373 1455.74 61.2495 Q1455.74 66.4804 1452.2 70.0254 Q1448.65 73.5703 1441.52 73.5703 Q1435.77 73.5703 1431.75 69.7228 Q1431.23 70.2415 1430.84 70.7171 Q1430.45 71.1494 1430.28 71.3223 Q1430.15 71.4952 1430.1 71.6249 Q1430.06 71.7114 1429.97 71.7978 Q1428.2 73.5703 1427.77 73.5703 Q1427.08 73.5703 1426.95 73.0948 Q1426.82 72.6625 1426.82 71.4088 Z" fill="#000000" fill-rule="nonzero" fill-opacity="1"></path><path clip-path="url(#clip630)" d="M1460.41 37.1699 L1460.41 35.2245 Q1464.47 35.0516 1467.15 32.1984 Q1469.88 29.3019 1470.78 25.757 Q1471.74 22.212 1471.82 18.1051 L1474.03 18.1051 L1474.03 34.4031 L1486.69 34.4031 L1486.69 37.1699 L1474.03 37.1699 L1474.03 61.7683 Q1474.03 71.3223 1479.99 71.3223 Q1482.54 71.3223 1484.23 68.7285 Q1485.92 66.0914 1485.92 61.4224 L1485.92 56.5373 L1488.12 56.5373 L1488.12 61.5954 Q1488.12 66.394 1485.92 69.9821 Q1483.71 73.5703 1479.34 73.5703 Q1477.74 73.5703 1476.14 73.138 Q1474.59 72.7489 1472.51 71.7114 Q1470.48 70.6306 1469.18 68.0368 Q1467.93 65.3997 1467.93 61.5954 L1467.93 37.1699 L1460.41 37.1699 Z" fill="#000000" fill-rule="nonzero" fill-opacity="1"></path><path clip-path="url(#clip630)" d="M1501.35 67.8206 Q1495.51 62.0277 1495.51 53.6409 Q1495.51 45.2109 1501.22 39.0721 Q1506.97 32.8901 1515.18 32.8901 Q1523.22 32.8901 1528.97 39.0288 Q1534.77 45.1244 1534.77 53.6409 Q1534.77 61.9844 1528.93 67.7774 Q1523.14 73.5703 1515.1 73.5703 Q1507.23 73.5703 1501.35 67.8206 M1502.86 52.9059 Q1502.86 61.5089 1505.11 65.3997 Q1508.57 71.3223 1515.18 71.3223 Q1518.47 71.3223 1521.19 69.5498 Q1523.96 67.7774 1525.47 64.7944 Q1527.42 60.9037 1527.42 52.9059 Q1527.42 44.3895 1525.08 40.6284 Q1521.62 34.8787 1515.1 34.8787 Q1512.24 34.8787 1509.43 36.3918 Q1506.67 37.8616 1504.98 40.8013 Q1502.86 44.6921 1502.86 52.9059 Z" fill="#000000" fill-rule="nonzero" fill-opacity="1"></path><path clip-path="url(#clip630)" d="M1539.78 72.576 L1539.78 69.8525 Q1544.49 69.8525 1545.57 69.2905 Q1546.7 68.6852 1546.7 65.832 L1546.7 42.0982 Q1546.7 38.8127 1545.53 37.9913 Q1544.41 37.1699 1539.78 37.1699 L1539.78 34.4031 L1552.1 33.4521 L1552.1 43.179 Q1553.36 39.3747 1555.99 36.435 Q1558.67 33.4521 1563 33.4521 Q1565.85 33.4521 1567.66 35.0516 Q1569.52 36.6511 1569.52 38.8559 Q1569.52 40.8013 1568.31 41.7956 Q1567.15 42.7467 1565.72 42.7467 Q1564.12 42.7467 1563 41.7524 Q1561.92 40.7148 1561.92 38.9424 Q1561.92 37.8616 1562.39 37.0402 Q1562.91 36.1756 1563.3 35.873 Q1563.69 35.5704 1563.95 35.4839 Q1563.77 35.3974 1563 35.3974 Q1558.11 35.3974 1555.3 40.2825 Q1552.53 45.1244 1552.53 52.0413 L1552.53 65.6591 Q1552.53 68.2097 1553.57 69.0311 Q1554.65 69.8525 1559.28 69.8525 L1561.14 69.8525 L1561.14 72.576 Q1557.59 72.3166 1549.9 72.3166 Q1548.82 72.3166 1547.13 72.3598 Q1545.44 72.4031 1543.24 72.4895 Q1541.03 72.576 1539.78 72.576 Z" fill="#000000" fill-rule="nonzero" fill-opacity="1"></path><path clip-path="url(#clip630)" d="M1574.84 72.576 L1574.84 69.8525 Q1579.55 69.8525 1580.63 69.2905 Q1581.71 68.6852 1581.71 65.832 L1581.71 42.0118 Q1581.71 38.7262 1580.59 37.9481 Q1579.51 37.1699 1575.19 37.1699 L1575.19 34.4031 L1587.55 33.4521 L1587.55 65.9184 Q1587.55 68.5555 1588.5 69.204 Q1589.45 69.8525 1593.78 69.8525 L1593.78 72.576 Q1584.74 72.3166 1584.57 72.3166 Q1583.36 72.3166 1574.84 72.576 M1578.56 18.0186 Q1578.56 16.2462 1579.9 14.8195 Q1581.28 13.3497 1583.23 13.3497 Q1585.17 13.3497 1586.56 14.6899 Q1587.94 15.9868 1587.94 18.0619 Q1587.94 20.0937 1586.56 21.4339 Q1585.17 22.7308 1583.23 22.7308 Q1581.2 22.7308 1579.86 21.3042 Q1578.56 19.8776 1578.56 18.0186 Z" fill="#000000" fill-rule="nonzero" fill-opacity="1"></path><path clip-path="url(#clip630)" d="M1598.88 53.0789 Q1598.88 44.7353 1604.24 38.8127 Q1609.6 32.8901 1617.29 32.8901 Q1625.08 32.8901 1629.1 37.9481 Q1633.16 43.0061 1633.16 50.2689 Q1633.16 51.609 1632.81 51.8684 Q1632.47 52.1278 1630.95 52.1278 L1606.23 52.1278 Q1606.23 61.163 1608.91 65.3997 Q1612.62 71.3223 1618.89 71.3223 Q1619.76 71.3223 1620.8 71.1494 Q1621.83 70.9765 1623.95 70.2415 Q1626.07 69.4634 1627.93 67.4315 Q1629.79 65.3997 1630.87 62.2006 Q1631.13 60.9469 1631.99 60.9901 Q1633.16 60.9901 1633.16 62.0277 Q1633.16 62.8058 1632.29 64.5783 Q1631.47 66.3075 1629.87 68.3826 Q1628.27 70.4577 1625.16 72.014 Q1622.09 73.5703 1618.37 73.5703 Q1610.59 73.5703 1604.71 67.6909 Q1598.88 61.7683 1598.88 53.0789 M1606.31 50.2689 L1627.32 50.2689 Q1627.32 48.4099 1626.98 46.3349 Q1626.67 44.2598 1625.72 41.4065 Q1624.82 38.5101 1622.65 36.6944 Q1620.49 34.8787 1617.29 34.8787 Q1615.87 34.8787 1614.31 35.4839 Q1612.8 36.0891 1610.94 37.559 Q1609.08 39.0288 1607.78 42.3576 Q1606.49 45.6864 1606.31 50.2689 Z" fill="#000000" fill-rule="nonzero" fill-opacity="1"></path><path clip-path="url(#clip630)" d="M1638.65 71.4088 L1638.65 59.7364 Q1638.65 58.7421 1638.69 58.3963 Q1638.74 58.0504 1639 57.791 Q1639.26 57.5317 1639.77 57.5317 Q1640.38 57.5317 1640.6 57.791 Q1640.85 58.0504 1641.03 59.0447 Q1642.37 65.1403 1645.22 68.3826 Q1648.12 71.5817 1653.35 71.5817 Q1658.32 71.5817 1660.83 69.3769 Q1663.33 67.1721 1663.33 63.5407 Q1663.33 57.0561 1654.13 55.4133 Q1648.81 54.3326 1646.6 53.6409 Q1644.4 52.9059 1642.45 51.3064 Q1638.65 48.1938 1638.65 43.7842 Q1638.65 39.3747 1641.98 36.1324 Q1645.35 32.8901 1652.79 32.8901 Q1657.76 32.8901 1661.13 35.3974 Q1662.12 34.6193 1662.64 33.9708 Q1663.81 32.8901 1664.42 32.8901 Q1665.11 32.8901 1665.24 33.3656 Q1665.37 33.7979 1665.37 35.0516 L1665.37 43.9572 Q1665.37 44.9515 1665.32 45.2973 Q1665.28 45.6432 1665.02 45.9025 Q1664.76 46.1187 1664.2 46.1187 Q1663.2 46.1187 1663.16 45.2973 Q1662.47 34.5761 1652.79 34.5761 Q1647.56 34.5761 1645.22 36.6079 Q1642.89 38.5965 1642.89 41.3201 Q1642.89 42.8332 1643.58 44.0004 Q1644.31 45.1244 1645.22 45.8161 Q1646.17 46.4645 1647.9 47.113 Q1649.63 47.7182 1650.67 47.9344 Q1651.75 48.1506 1653.78 48.5829 Q1660.87 49.923 1663.85 52.8195 Q1667.57 56.5373 1667.57 61.2495 Q1667.57 66.4804 1664.03 70.0254 Q1660.48 73.5703 1653.35 73.5703 Q1647.6 73.5703 1643.58 69.7228 Q1643.06 70.2415 1642.67 70.7171 Q1642.28 71.1494 1642.11 71.3223 Q1641.98 71.4952 1641.94 71.6249 Q1641.89 71.7114 1641.81 71.7978 Q1640.03 73.5703 1639.6 73.5703 Q1638.91 73.5703 1638.78 73.0948 Q1638.65 72.6625 1638.65 71.4088 Z" fill="#000000" fill-rule="nonzero" fill-opacity="1"></path><polyline clip-path="url(#clip632)" style="stroke:#009af9; stroke-linecap:round; stroke-linejoin:round; stroke-width:4; stroke-opacity:1; fill:none" points="-1675.2,428.74 -1566.85,424.169 -1460.59,419.521 -1356.44,414.794 -1254.38,409.986 -1154.42,405.095 -1056.56,400.119 -960.787,395.055 -867.105,389.9 -775.511,384.653 -686,379.311 -598.572,373.871 -513.222,368.331 -429.947,362.689 -348.743,356.943 -269.606,351.09 -192.533,345.128 -117.518,339.057 -44.5569,332.874 26.3566,326.58 95.228,320.172 162.064,313.653 226.871,307.023 289.658,300.283 350.433,293.439 409.205,286.494 465.985,279.456 520.785,272.332 573.617,265.135 624.496,257.879 673.437,250.58 720.46,243.26 765.584,235.945 808.833,228.664 850.233,221.45 889.813,214.342 927.609,207.384 963.659,200.621 998.009,194.101 1030.71,187.874 1061.83,181.987 1091.43,176.486 1119.59,171.408 1146.42,166.787 1172.01,162.646 1196.51,159.001 1220.04,155.86 1242.78,153.229 1264.91,151.111 1286.61,149.516 1308.11,148.462 1329.6,147.981 1351.3,148.128 1373.43,148.976 1396.17,150.627 1419.71,153.209 1444.2,156.878 1469.8,161.807 1496.62,168.172 1524.79,176.099 1554.39,185.525 1585.5,195.889 1618.2,205.629 1652.55,212.191 1688.6,214.035 1726.4,212.786 1765.98,211.628 1807.38,213.065 1850.63,218.806 1895.75,230.539 1942.78,250.873 1991.72,283.639 2042.6,308.969 2095.43,281.881 2150.23,260.385 2207.01,252.913 2265.78,257.942 2326.55,278.264 2389.34,330.812 2454.15,377.025 2520.99,297.632 2589.86,275.714 2660.77,275.306 2733.73,294.618 2808.75,339.819 2885.82,326.638 2964.96,292.373 3046.16,284.337 3129.43,297.436 3214.78,326.44 3302.21,316.446 3391.72,293.951 3483.32,292.51 3577,310.212 3672.77,319.924 3770.64,301.013 3870.6,294.898 3972.65,307.392 4076.81,315.964 4183.06,301.611 4291.42,298.017 "></polyline>
<polyline clip-path="url(#clip632)" style="stroke:#e26f46; stroke-linecap:round; stroke-linejoin:round; stroke-width:4; stroke-opacity:1; fill:none" points="-1675.2,1224.61 -1566.85,1209 -1460.59,1193.16 -1356.44,1177.09 -1254.38,1160.78 -1154.42,1144.23 -1056.56,1127.45 -960.787,1110.42 -867.105,1093.15 -775.511,1075.64 -686,1057.9 -598.572,1039.92 -513.222,1021.72 -429.947,1003.3 -348.743,984.683 -269.606,965.881 -192.533,946.919 -117.518,927.828 -44.5569,908.647 26.3566,889.425 95.228,870.228 162.064,851.14 226.871,832.268 289.658,813.757 350.433,795.798 409.205,778.652 465.985,762.687 520.785,748.44 573.617,736.729 624.496,728.858 673.437,726.759 720.46,730.103 765.584,713.299 808.833,663.67 850.233,616.225 889.813,576.426 927.609,542.915 963.659,514.819 998.009,491.907 1030.71,474.395 1061.83,462.794 1091.43,457.535 1119.59,456.934 1146.42,450.689 1172.01,428.072 1196.51,400.886 1220.04,378.751 1242.78,363.082 1264.91,353.332 1286.61,348.613 1308.11,347.533 1329.6,347.455 1351.3,344.61 1373.43,337.297 1396.17,327.976 1419.71,319.872 1444.2,314.515 1469.8,311.962 1496.62,311.348 1524.79,311.303 1554.39,310.63 1585.5,309.048 1618.2,307.153 1652.55,305.675 1688.6,304.941 1726.4,304.843 1765.98,305.056 1807.38,305.286 1850.63,305.398 1895.75,305.417 1942.78,305.42 1991.72,305.449 2042.6,305.497 2095.43,305.531 2150.23,305.531 2207.01,305.506 2265.78,305.48 2326.55,305.47 2389.34,305.478 2454.15,305.49 2520.99,305.496 2589.86,305.493 2660.77,305.488 2733.73,305.486 2808.75,305.487 2885.82,305.49 2964.96,305.49 3046.16,305.489 3129.43,305.488 3214.78,305.488 3302.21,305.489 3391.72,305.489 3483.32,305.489 3577,305.489 3672.77,305.489 3770.64,305.489 3870.6,305.489 3972.65,305.489 4076.81,305.489 4183.06,305.489 4291.42,305.489 "></polyline>
<polyline clip-path="url(#clip632)" style="stroke:#3da44d; stroke-linecap:round; stroke-linejoin:round; stroke-width:4; stroke-opacity:1; fill:none" points="-1675.2,1563.15 -1566.85,1541.21 -1460.59,1518.99 -1356.44,1496.48 -1254.38,1473.68 -1154.42,1450.59 -1056.56,1427.23 -960.787,1403.59 -867.105,1379.7 -775.511,1355.56 -686,1331.21 -598.572,1306.66 -513.222,1281.97 -429.947,1257.16 -348.743,1232.32 -269.606,1207.53 -192.533,1182.9 -117.518,1158.58 -44.5569,1134.79 26.3566,1111.85 95.228,1090.22 162.064,1070.62 226.871,1054.31 289.658,1043.58 350.433,1042.28 409.205,1037.9 465.985,975.83 520.785,910.463 573.617,855.33 624.496,807.03 673.437,763.792 720.46,725.047 765.584,690.992 808.833,662.531 850.233,641.528 889.813,631.185 927.609,628.696 963.659,586.303 998.009,527.421 1030.71,482.936 1061.83,452.216 1091.43,434.802 1119.59,431.084 1146.42,429.325 1172.01,397.375 1196.51,362.158 1220.04,340.415 1242.78,331.71 1264.91,333.6 1286.61,337.07 1308.11,326.511 1329.6,309.606 1351.3,299.126 1373.43,297.197 1396.17,301.638 1419.71,306.822 1444.2,306.685 1469.8,302.922 1496.62,300.654 1524.79,301.395 1554.39,303.746 1585.5,305.616 1618.2,306.103 1652.55,305.786 1688.6,305.481 1726.4,305.457 1765.98,305.572 1807.38,305.643 1850.63,305.622 1895.75,305.557 1942.78,305.504 1991.72,305.482 2042.6,305.48 2095.43,305.485 2150.23,305.488 2207.01,305.488 2265.78,305.488 2326.55,305.489 2389.34,305.489 2454.15,305.489 2520.99,305.489 2589.86,305.489 2660.77,305.489 2733.73,305.489 2808.75,305.489 2885.82,305.489 2964.96,305.489 3046.16,305.489 3129.43,305.489 3214.78,305.489 3302.21,305.489 3391.72,305.489 3483.32,305.489 3577,305.489 3672.77,305.489 3770.64,305.489 3870.6,305.489 3972.65,305.489 4076.81,305.489 4183.06,305.489 4291.42,305.489 "></polyline>
<polyline clip-path="url(#clip632)" style="stroke:#c271d2; stroke-linecap:round; stroke-linejoin:round; stroke-width:4; stroke-opacity:1; fill:none" points="95.228,2609.52 162.064,2379.75 226.871,2168.76 289.658,1975.73 350.433,1799.47 409.205,1638.91 465.985,1492.99 520.785,1360.72 573.617,1241.13 624.496,1133.29 673.437,1036.31 720.46,949.348 765.584,871.591 808.833,802.265 850.233,740.637 889.813,686.011 927.609,637.731 963.659,595.177 998.009,557.769 1030.71,524.963 1061.83,496.256 1091.43,471.177 1119.59,449.295 1146.42,430.213 1172.01,413.571 1196.51,399.04 1220.04,386.329 1242.78,375.176 1264.91,365.355 1286.61,356.67 1308.11,348.961 1329.6,342.096 1351.3,335.977 1373.43,330.529 1396.17,325.706 1419.71,321.475 1444.2,317.818 1469.8,314.721 1496.62,312.164 1524.79,310.123 1554.39,308.558 1585.5,307.413 1618.2,306.622 1652.55,306.11 1688.6,305.803 1726.4,305.634 1765.98,305.55 1807.38,305.511 1850.63,305.496 1895.75,305.491 1942.78,305.489 1991.72,305.489 2042.6,305.489 2095.43,305.489 2150.23,305.489 2207.01,305.489 2265.78,305.489 2326.55,305.489 2389.34,305.489 2454.15,305.489 2520.99,305.489 2589.86,305.489 2660.77,305.489 2733.73,305.489 2808.75,305.489 2885.82,305.489 2964.96,305.489 3046.16,305.489 3129.43,305.489 3214.78,305.489 3302.21,305.489 3391.72,305.489 3483.32,305.489 3577,305.489 3672.77,305.489 3770.64,305.489 3870.6,305.489 3972.65,305.489 4076.81,305.489 4183.06,305.489 4291.42,305.489 "></polyline>
<path clip-path="url(#clip630)" d="M2028.83 1379.86 L2283.11 1379.86 L2283.11 1172.5 L2028.83 1172.5  Z" fill="#ffffff" fill-rule="evenodd" fill-opacity="1"></path>
<polyline clip-path="url(#clip630)" style="stroke:#000000; stroke-linecap:round; stroke-linejoin:round; stroke-width:4; stroke-opacity:1; fill:none" points="2028.83,1379.86 2283.11,1379.86 2283.11,1172.5 2028.83,1172.5 2028.83,1379.86 "></polyline>
<polyline clip-path="url(#clip630)" style="stroke:#009af9; stroke-linecap:round; stroke-linejoin:round; stroke-width:4; stroke-opacity:1; fill:none" points="2052.05,1224.34 2191.33,1224.34 "></polyline>
<path clip-path="url(#clip630)" d="M2233.03 1222 Q2233.22 1222.21 2233.22 1222.42 Q2233.22 1222.63 2232.75 1223.24 Q2232.3 1223.85 2231.34 1224.67 Q2230.38 1225.49 2229.14 1226.26 Q2227.9 1227.04 2226.07 1227.55 Q2224.25 1228.09 2222.33 1228.09 Q2218.74 1228.09 2216.63 1225.72 Q2214.55 1223.36 2214.55 1219.96 Q2214.55 1216.66 2216.4 1213.5 Q2218.25 1210.31 2221.25 1208.35 Q2224.25 1206.35 2227.41 1206.35 Q2229.91 1206.35 2231.48 1207.53 Q2233.05 1208.7 2233.05 1210.48 Q2233.05 1211.86 2232.26 1212.7 Q2231.46 1213.55 2230.38 1213.55 Q2229.63 1213.55 2229.12 1213.12 Q2228.6 1212.68 2228.6 1211.86 Q2228.6 1210.8 2229.47 1209.99 Q2229.8 1209.66 2230.17 1209.52 Q2230.57 1209.35 2230.8 1209.35 Q2231.04 1209.33 2231.58 1209.33 Q2231.09 1208.42 2229.91 1207.92 Q2228.77 1207.41 2227.45 1207.41 Q2225.51 1207.41 2223.66 1208.77 Q2221.81 1210.1 2220.69 1212.21 Q2219.56 1214.27 2218.84 1217.2 Q2218.11 1220.1 2218.11 1221.79 Q2218.11 1224.11 2219.19 1225.56 Q2220.26 1227.01 2222.42 1227.01 Q2222.84 1227.01 2223.29 1226.99 Q2223.75 1226.97 2224.92 1226.71 Q2226.12 1226.45 2227.17 1226.01 Q2228.23 1225.56 2229.56 1224.6 Q2230.92 1223.62 2232 1222.28 Q2232.37 1221.79 2232.63 1221.79 Q2232.84 1221.79 2233.03 1222 Z" fill="#000000" fill-rule="nonzero" fill-opacity="1"></path><path clip-path="url(#clip630)" d="M2238.15 1230.63 Q2238.15 1225.7 2239.4 1223.01 Q2241.14 1219.01 2245.24 1219.01 Q2246.11 1219.01 2247.01 1219.25 Q2247.93 1219.48 2249.07 1220.39 Q2250.24 1221.29 2250.94 1222.76 Q2252.29 1225.62 2252.29 1230.63 Q2252.29 1235.54 2251.04 1238.21 Q2249.22 1242.11 2245.2 1242.11 Q2243.69 1242.11 2242.15 1241.34 Q2240.63 1240.57 2239.66 1238.72 Q2238.15 1235.95 2238.15 1230.63 M2240.94 1230.22 Q2240.94 1235.29 2241.3 1237.31 Q2241.71 1239.49 2242.83 1240.44 Q2243.96 1241.37 2245.2 1241.37 Q2246.55 1241.37 2247.66 1240.37 Q2248.79 1239.36 2249.14 1237.17 Q2249.52 1235.03 2249.5 1230.22 Q2249.5 1225.55 2249.17 1223.68 Q2248.73 1221.5 2247.55 1220.63 Q2246.38 1219.75 2245.2 1219.75 Q2244.76 1219.75 2244.29 1219.88 Q2243.83 1220.01 2243.15 1220.39 Q2242.48 1220.76 2241.96 1221.7 Q2241.45 1222.63 2241.2 1224.04 Q2240.94 1225.86 2240.94 1230.22 Z" fill="#000000" fill-rule="nonzero" fill-opacity="1"></path><polyline clip-path="url(#clip630)" style="stroke:#e26f46; stroke-linecap:round; stroke-linejoin:round; stroke-width:4; stroke-opacity:1; fill:none" points="2052.05,1276.18 2191.33,1276.18 "></polyline>
<path clip-path="url(#clip630)" d="M2233.03 1273.84 Q2233.22 1274.05 2233.22 1274.26 Q2233.22 1274.47 2232.75 1275.08 Q2232.3 1275.69 2231.34 1276.51 Q2230.38 1277.33 2229.14 1278.1 Q2227.9 1278.88 2226.07 1279.39 Q2224.25 1279.93 2222.33 1279.93 Q2218.74 1279.93 2216.63 1277.56 Q2214.55 1275.2 2214.55 1271.8 Q2214.55 1268.5 2216.4 1265.34 Q2218.25 1262.15 2221.25 1260.19 Q2224.25 1258.19 2227.41 1258.19 Q2229.91 1258.19 2231.48 1259.37 Q2233.05 1260.54 2233.05 1262.32 Q2233.05 1263.7 2232.26 1264.54 Q2231.46 1265.39 2230.38 1265.39 Q2229.63 1265.39 2229.12 1264.96 Q2228.6 1264.52 2228.6 1263.7 Q2228.6 1262.64 2229.47 1261.83 Q2229.8 1261.5 2230.17 1261.36 Q2230.57 1261.19 2230.8 1261.19 Q2231.04 1261.17 2231.58 1261.17 Q2231.09 1260.26 2229.91 1259.76 Q2228.77 1259.25 2227.45 1259.25 Q2225.51 1259.25 2223.66 1260.61 Q2221.81 1261.94 2220.69 1264.05 Q2219.56 1266.11 2218.84 1269.04 Q2218.11 1271.94 2218.11 1273.63 Q2218.11 1275.95 2219.19 1277.4 Q2220.26 1278.85 2222.42 1278.85 Q2222.84 1278.85 2223.29 1278.83 Q2223.75 1278.81 2224.92 1278.55 Q2226.12 1278.29 2227.17 1277.85 Q2228.23 1277.4 2229.56 1276.44 Q2230.92 1275.46 2232 1274.12 Q2232.37 1273.63 2232.63 1273.63 Q2232.84 1273.63 2233.03 1273.84 Z" fill="#000000" fill-rule="nonzero" fill-opacity="1"></path><path clip-path="url(#clip630)" d="M2238.15 1287.8 Q2238.15 1286.8 2238.69 1286.42 Q2239.24 1286.03 2239.81 1286.03 Q2240.58 1286.03 2241.02 1286.52 Q2241.48 1287 2241.48 1287.67 Q2241.48 1288.34 2241.02 1288.83 Q2240.58 1289.31 2239.81 1289.31 Q2239.43 1289.31 2239.24 1289.24 Q2239.68 1290.79 2241.02 1291.9 Q2242.38 1293.02 2244.17 1293.02 Q2246.42 1293.02 2247.76 1290.83 Q2248.56 1289.42 2248.56 1286.23 Q2248.56 1283.41 2247.96 1282 Q2247.02 1279.85 2245.1 1279.85 Q2242.38 1279.85 2240.78 1282.19 Q2240.58 1282.49 2240.35 1282.51 Q2240.02 1282.51 2239.94 1282.33 Q2239.87 1282.13 2239.87 1281.62 L2239.87 1271.68 Q2239.87 1270.88 2240.2 1270.88 Q2240.33 1270.88 2240.61 1270.98 Q2242.73 1271.91 2245.07 1271.93 Q2247.48 1271.93 2249.65 1270.95 Q2249.81 1270.85 2249.91 1270.85 Q2250.24 1270.85 2250.25 1271.23 Q2250.25 1271.36 2249.97 1271.75 Q2249.71 1272.13 2249.14 1272.64 Q2248.56 1273.13 2247.83 1273.6 Q2247.09 1274.08 2246.01 1274.41 Q2244.94 1274.72 2243.76 1274.72 Q2242.35 1274.72 2240.91 1274.28 L2240.91 1280.82 Q2242.65 1279.11 2245.17 1279.11 Q2247.86 1279.11 2249.71 1281.28 Q2251.56 1283.44 2251.56 1286.46 Q2251.56 1289.62 2249.37 1291.79 Q2247.19 1293.95 2244.24 1293.95 Q2241.55 1293.95 2239.84 1292.03 Q2238.15 1290.11 2238.15 1287.8 Z" fill="#000000" fill-rule="nonzero" fill-opacity="1"></path><polyline clip-path="url(#clip630)" style="stroke:#3da44d; stroke-linecap:round; stroke-linejoin:round; stroke-width:4; stroke-opacity:1; fill:none" points="2052.05,1328.02 2191.33,1328.02 "></polyline>
<path clip-path="url(#clip630)" d="M2233.03 1325.68 Q2233.22 1325.89 2233.22 1326.1 Q2233.22 1326.31 2232.75 1326.92 Q2232.3 1327.53 2231.34 1328.35 Q2230.38 1329.17 2229.14 1329.94 Q2227.9 1330.72 2226.07 1331.23 Q2224.25 1331.77 2222.33 1331.77 Q2218.74 1331.77 2216.63 1329.4 Q2214.55 1327.04 2214.55 1323.64 Q2214.55 1320.34 2216.4 1317.18 Q2218.25 1313.99 2221.25 1312.03 Q2224.25 1310.03 2227.41 1310.03 Q2229.91 1310.03 2231.48 1311.21 Q2233.05 1312.38 2233.05 1314.16 Q2233.05 1315.54 2232.26 1316.38 Q2231.46 1317.23 2230.38 1317.23 Q2229.63 1317.23 2229.12 1316.8 Q2228.6 1316.36 2228.6 1315.54 Q2228.6 1314.48 2229.47 1313.67 Q2229.8 1313.34 2230.17 1313.2 Q2230.57 1313.03 2230.8 1313.03 Q2231.04 1313.01 2231.58 1313.01 Q2231.09 1312.1 2229.91 1311.6 Q2228.77 1311.09 2227.45 1311.09 Q2225.51 1311.09 2223.66 1312.45 Q2221.81 1313.78 2220.69 1315.89 Q2219.56 1317.95 2218.84 1320.88 Q2218.11 1323.78 2218.11 1325.47 Q2218.11 1327.79 2219.19 1329.24 Q2220.26 1330.69 2222.42 1330.69 Q2222.84 1330.69 2223.29 1330.67 Q2223.75 1330.65 2224.92 1330.39 Q2226.12 1330.13 2227.17 1329.69 Q2228.23 1329.24 2229.56 1328.28 Q2230.92 1327.3 2232 1325.96 Q2232.37 1325.47 2232.63 1325.47 Q2232.84 1325.47 2233.03 1325.68 Z" fill="#000000" fill-rule="nonzero" fill-opacity="1"></path><path clip-path="url(#clip630)" d="M2238.15 1339.99 Q2238.15 1336.23 2242.99 1333.8 Q2240.91 1332.39 2240.53 1331.98 Q2239.05 1330.35 2239.05 1328.3 Q2239.05 1325.95 2240.83 1324.33 Q2242.61 1322.69 2245.14 1322.69 Q2247.55 1322.69 2249.37 1324.08 Q2251.19 1325.48 2251.19 1327.69 Q2251.19 1330.8 2247.12 1332.9 Q2249.81 1334.58 2250.45 1335.28 Q2252.09 1337.1 2252.09 1339.41 Q2252.09 1342.1 2250.02 1343.95 Q2247.96 1345.79 2245.1 1345.79 Q2242.32 1345.79 2240.24 1344.17 Q2238.15 1342.54 2238.15 1339.99 M2239.83 1339.99 Q2239.83 1342.07 2241.38 1343.46 Q2242.96 1344.86 2245.14 1344.86 Q2247.25 1344.86 2248.83 1343.64 Q2250.42 1342.43 2250.42 1340.63 Q2250.42 1339.92 2250.17 1339.31 Q2249.94 1338.71 2249.47 1338.23 Q2249.01 1337.74 2248.71 1337.53 Q2248.43 1337.3 2247.89 1336.92 L2243.76 1334.31 Q2239.83 1336.49 2239.83 1339.99 M2240.53 1326.98 Q2240.53 1328.59 2242.22 1329.71 L2246.38 1332.39 Q2249.71 1330.44 2249.71 1327.69 Q2249.71 1325.9 2248.35 1324.72 Q2246.99 1323.52 2245.1 1323.52 Q2243.25 1323.52 2241.89 1324.51 Q2240.53 1325.48 2240.53 1326.98 Z" fill="#000000" fill-rule="nonzero" fill-opacity="1"></path></svg>